<?xml version="1.0" encoding="UTF-8" standalone="no"?>
<!-- Created with Inkscape (http://www.inkscape.org/) -->

<svg
   xmlns:dc="http://purl.org/dc/elements/1.1/"
   xmlns:cc="http://creativecommons.org/ns#"
   xmlns:rdf="http://www.w3.org/1999/02/22-rdf-syntax-ns#"
   xmlns:svg="http://www.w3.org/2000/svg"
   xmlns="http://www.w3.org/2000/svg"
   xmlns:sodipodi="http://sodipodi.sourceforge.net/DTD/sodipodi-0.dtd"
   xmlns:inkscape="http://www.inkscape.org/namespaces/inkscape"
   width="450mm"
   height="300mm"
   viewBox="0 0 450 300.00001"
   version="1.1"
   id="svg8"
   sodipodi:docname="ChalmersShirt.svg"
   inkscape:version="0.92.3 (2405546, 2018-03-11)">
  <defs
     id="defs2" />
  <sodipodi:namedview
     id="base"
     pagecolor="#737373"
     bordercolor="#666666"
     borderopacity="1.0"
     inkscape:pageopacity="0"
     inkscape:pageshadow="2"
     inkscape:zoom="0.50434028"
     inkscape:cx="864"
     inkscape:cy="576"
     inkscape:document-units="mm"
     inkscape:current-layer="layer1"
     showgrid="false"
     units="mm"
     inkscape:pagecheckerboard="false"
     inkscape:window-width="1366"
     inkscape:window-height="738"
     inkscape:window-x="0"
     inkscape:window-y="1"
     inkscape:window-maximized="1"
     inkscape:snap-global="false"
     inkscape:measure-start="0,0"
     inkscape:measure-end="0,0"
     showguides="true"
     inkscape:guide-bbox="true" />
  <metadata
     id="metadata5">
    <rdf:RDF>
      <cc:Work
         rdf:about="">
        <dc:format>image/svg+xml</dc:format>
        <dc:type
           rdf:resource="http://purl.org/dc/dcmitype/StillImage" />
        <dc:title></dc:title>
      </cc:Work>
    </rdf:RDF>
  </metadata>
  <g
     inkscape:label="Layer 1"
     inkscape:groupmode="layer"
     id="layer1"
     transform="translate(0,3.0000244)">
    <path
       sodipodi:nodetypes="ccccc"
       inkscape:connector-curvature="0"
       id="path4164"
       d="M 139.41349,112.99533 C 129.19813,104.79425 114.46494,96.851283 99.993921,96.851283 v 8.603387 c 16.702899,-0.78316 27.645259,4.44101 37.202709,9.11703 z"
       style="opacity:1;fill:none;fill-opacity:0.2961877;stroke:#000000;stroke-width:0.15419109;stroke-linecap:round;stroke-linejoin:round;stroke-miterlimit:4;stroke-dasharray:none;stroke-opacity:1" />
    <path
       sodipodi:nodetypes="ccccc"
       inkscape:connector-curvature="0"
       id="path4186"
       d="m 201.48522,160.92574 c -7.0563,-1.52085 -16.81789,-7.82975 -26.93016,-17.52172 l -1.24456,2.0922 c 7.55292,9.13471 19.51347,20.69268 28.17472,24.1786 z"
       style="opacity:1;fill:none;fill-opacity:0.2961877;stroke:#000000;stroke-width:0.15419109;stroke-linecap:round;stroke-linejoin:round;stroke-miterlimit:4;stroke-dasharray:none;stroke-opacity:1" />
    <path
       style="fill:none;stroke:#000000;stroke-width:0.15419109;stroke-linejoin:round;stroke-miterlimit:4;stroke-dasharray:none;stroke-opacity:1"
       d="m 149.81945,133.06171 a 5.9654284,5.9496689 0 0 1 -5.96543,5.94967 5.9654284,5.9496689 0 0 1 -5.96543,-5.94967 5.9654284,5.9496689 0 0 1 5.96543,-5.94967 5.9654284,5.9496689 0 0 1 5.96543,5.94967 z"
       id="ellipse4255" />
    <path
       style="fill:none;stroke:#000000;stroke-width:0.15419109;stroke-linejoin:round;stroke-miterlimit:4;stroke-dasharray:none;stroke-opacity:1"
       d="m 168.61698,133.06171 a 5.9654284,5.9496689 0 0 1 -5.96543,5.94967 5.9654284,5.9496689 0 0 1 -5.96543,-5.94967 5.9654284,5.9496689 0 0 1 5.96543,-5.94967 5.9654284,5.9496689 0 0 1 5.96543,5.94967 z"
       id="ellipse4257" />
    <path
       style="fill:none;stroke:#000000;stroke-width:0.15419109;stroke-linejoin:round;stroke-miterlimit:4;stroke-dasharray:none;stroke-opacity:1"
       d="m 175.90973,132.5453 a 22.699446,22.639481 0 0 1 -22.69945,22.63948 22.699446,22.639481 0 0 1 -22.69944,-22.63948 22.699446,22.639481 0 0 1 22.69944,-22.63948 22.699446,22.639481 0 0 1 22.69945,22.63948 z"
       id="ellipse4259" />
    <path
       style="opacity:1;fill:none;fill-opacity:0.2961877;stroke:#000000;stroke-width:0.15419109;stroke-linecap:round;stroke-linejoin:round;stroke-miterlimit:4;stroke-dasharray:none;stroke-opacity:1"
       d="m 99.993921,120.58501 c 11.865259,-1.66146 20.181739,-2.97679 32.466779,0.40898 l 1.34304,-2.41746 c -9.89777,-5.71449 -21.94456,-7.48734 -33.809819,-5.82588 z"
       id="path1588"
       inkscape:connector-curvature="0"
       sodipodi:nodetypes="ccccc" />
    <path
       style="opacity:1;fill:none;fill-opacity:0.2961877;stroke:#000000;stroke-width:0.15419109;stroke-linecap:round;stroke-linejoin:round;stroke-miterlimit:4;stroke-dasharray:none;stroke-opacity:1"
       d="m 201.48522,144.4013 c -4.87214,-0.54321 -14.45982,-1.24664 -24.97187,-7.24577 l -0.47398,2.05296 c 10.51205,5.99913 19.71808,9.84454 25.44585,10.21767 z"
       id="path1584"
       inkscape:connector-curvature="0"
       sodipodi:nodetypes="ccccc" />
    <path
       style="fill:none;stroke:#000000;stroke-width:0.14082098;stroke-linejoin:round;stroke-miterlimit:4;stroke-dasharray:none;stroke-opacity:1"
       d="m 173.94143,132.5453 a 20.731148,20.676382 0 0 1 -20.73115,20.67639 20.731148,20.676382 0 0 1 -20.73115,-20.67639 20.731148,20.676382 0 0 1 20.73115,-20.67638 20.731148,20.676382 0 0 1 20.73115,20.67638 z"
       id="ellipse1599" />
    <path
       inkscape:connector-curvature="0"
       id="path1679"
       style="font-style:normal;font-weight:normal;font-size:medium;line-height:1.25;font-family:sans-serif;letter-spacing:0px;word-spacing:0px;fill:#000000;fill-opacity:1;stroke:none;stroke-width:0.25666648"
       d="m 105.7857,175.58809 v 1.06778 q -0.51133,-0.47624 -1.09284,-0.71185 -0.5765,-0.23561 -1.22819,-0.23561 -1.28333,0 -1.9651,0.78704 -0.68177,0.78203 -0.68177,2.26588 0,1.47884 0.68177,2.26589 0.68177,0.78203 1.9651,0.78203 0.65169,0 1.22819,-0.23561 0.58151,-0.23561 1.09284,-0.71185 v 1.05775 q -0.53138,0.36093 -1.12793,0.5414 -0.59154,0.18047 -1.25325,0.18047 -1.69942,0 -2.67696,-1.03769 -0.977525,-1.04271 -0.977525,-2.84239 0,-1.80468 0.977525,-2.84238 0.97754,-1.0427 2.67696,-1.0427 0.67174,0 1.26328,0.18046 0.59654,0.17546 1.1179,0.53138 z" />
    <path
       inkscape:connector-curvature="0"
       id="path1681"
       style="font-style:normal;font-weight:normal;font-size:medium;line-height:1.25;font-family:sans-serif;letter-spacing:0px;word-spacing:0px;fill:#000000;fill-opacity:1;stroke:none;stroke-width:0.25666648"
       d="m 111.9868,179.10723 v 3.3888 h -0.92239 v -3.35872 q 0,-0.79707 -0.31081,-1.1931 -0.31081,-0.39603 -0.93242,-0.39603 -0.74694,0 -1.17806,0.47624 -0.43112,0.47624 -0.43112,1.29837 v 3.17324 h -0.92741 v -7.80025 h 0.92741 v 3.05794 q 0.33086,-0.50632 0.77702,-0.75697 0.45117,-0.25065 1.03769,-0.25065 0.96751,0 1.4638,0.60156 0.49629,0.59655 0.49629,1.75957 z" />
    <path
       inkscape:connector-curvature="0"
       id="path1683"
       style="font-style:normal;font-weight:normal;font-size:medium;line-height:1.25;font-family:sans-serif;letter-spacing:0px;word-spacing:0px;fill:#000000;fill-opacity:1;stroke:none;stroke-width:0.25666648"
       d="m 116.38823,179.6737 q -1.1179,0 -1.54902,0.25567 -0.43112,0.25566 -0.43112,0.87226 0,0.49128 0.32083,0.78203 0.32585,0.28575 0.88229,0.28575 0.76699,0 1.22819,-0.54141 0.46621,-0.54642 0.46621,-1.44876 v -0.20554 z m 1.83978,-0.38099 v 3.20332 h -0.9224 v -0.85221 q -0.31582,0.51133 -0.78704,0.75697 -0.47123,0.24062 -1.153,0.24062 -0.86223,0 -1.37356,-0.48125 -0.50632,-0.48626 -0.50632,-1.29837 0,-0.94746 0.63164,-1.42871 0.63666,-0.48125 1.89492,-0.48125 h 1.29336 v -0.0902 q 0,-0.63666 -0.42109,-0.98256 -0.41608,-0.35091 -1.17305,-0.35091 -0.48125,0 -0.93743,0.1153 -0.45619,0.1153 -0.87728,0.3459 v -0.85221 q 0.50631,-0.19551 0.98255,-0.29076 0.47624,-0.10026 0.92741,-0.10026 1.21816,0 1.81973,0.63164 0.60156,0.63164 0.60156,1.91497 z" />
    <path
       inkscape:connector-curvature="0"
       id="path1685"
       style="font-style:normal;font-weight:normal;font-size:medium;line-height:1.25;font-family:sans-serif;letter-spacing:0px;word-spacing:0px;fill:#000000;fill-opacity:1;stroke:none;stroke-width:0.25666648"
       d="m 120.13295,174.69578 h 0.9224 v 7.80025 h -0.9224 z" />
    <path
       inkscape:connector-curvature="0"
       id="path1687"
       style="font-style:normal;font-weight:normal;font-size:medium;line-height:1.25;font-family:sans-serif;letter-spacing:0px;word-spacing:0px;fill:#000000;fill-opacity:1;stroke:none;stroke-width:0.25666648"
       d="m 127.3517,177.95925 q 0.3459,-0.62161 0.82715,-0.91738 0.48125,-0.29577 1.13294,-0.29577 0.87728,0 1.35351,0.6166 0.47624,0.61159 0.47624,1.74453 v 3.3888 h -0.92741 v -3.35872 q 0,-0.80709 -0.28574,-1.19811 -0.28574,-0.39102 -0.87226,-0.39102 -0.71687,0 -1.13295,0.47624 -0.41608,0.47624 -0.41608,1.29837 v 3.17324 h -0.92741 v -3.35872 q 0,-0.81211 -0.28574,-1.19811 -0.28574,-0.39102 -0.88229,-0.39102 -0.70683,0 -1.12291,0.48125 -0.41608,0.47624 -0.41608,1.29336 v 3.17324 h -0.92741 v -5.61458 h 0.92741 v 0.87227 q 0.31582,-0.51634 0.75696,-0.76198 0.44115,-0.24564 1.04772,-0.24564 0.61159,0 1.0377,0.31081 0.43112,0.31081 0.63665,0.90234 z" />
    <path
       inkscape:connector-curvature="0"
       id="path1689"
       style="font-style:normal;font-weight:normal;font-size:medium;line-height:1.25;font-family:sans-serif;letter-spacing:0px;word-spacing:0px;fill:#000000;fill-opacity:1;stroke:none;stroke-width:0.25666648"
       d="m 137.7888,179.45814 v 0.45118 h -4.24101 q 0.0602,0.95247 0.57148,1.45377 0.51634,0.49629 1.43373,0.49629 0.53138,0 1.02767,-0.13034 0.5013,-0.13034 0.99257,-0.39101 v 0.87226 q -0.49629,0.21055 -1.01764,0.32083 -0.52135,0.11029 -1.05775,0.11029 -1.34349,0 -2.13053,-0.78203 -0.78203,-0.78203 -0.78203,-2.11549 0,-1.37858 0.74193,-2.18568 0.74694,-0.81211 2.01022,-0.81211 1.13294,0 1.78964,0.7319 0.66172,0.72689 0.66172,1.98014 z m -0.92239,-0.2707 q -0.01,-0.75696 -0.42611,-1.20814 -0.41107,-0.45117 -1.09284,-0.45117 -0.772,0 -1.23821,0.43613 -0.4612,0.43614 -0.53138,1.22819 z" />
    <path
       inkscape:connector-curvature="0"
       id="path1691"
       style="font-style:normal;font-weight:normal;font-size:medium;line-height:1.25;font-family:sans-serif;letter-spacing:0px;word-spacing:0px;fill:#000000;fill-opacity:1;stroke:none;stroke-width:0.25666648"
       d="m 142.55618,177.74369 q -0.1554,-0.0902 -0.34089,-0.13034 -0.18047,-0.0451 -0.40104,-0.0451 -0.78203,0 -1.20312,0.51132 -0.41608,0.50632 -0.41608,1.45879 v 2.95768 h -0.92741 v -5.61458 h 0.92741 v 0.87227 q 0.29075,-0.51133 0.75696,-0.75697 0.46621,-0.25065 1.13295,-0.25065 0.0952,0 0.21054,0.015 0.1153,0.01 0.25567,0.0351 z" />
    <path
       inkscape:connector-curvature="0"
       id="path1693"
       style="font-style:normal;font-weight:normal;font-size:medium;line-height:1.25;font-family:sans-serif;letter-spacing:0px;word-spacing:0px;fill:#000000;fill-opacity:1;stroke:none;stroke-width:0.25666648"
       d="m 147.11301,177.04688 v 0.87227 q -0.39101,-0.20052 -0.81211,-0.30078 -0.42109,-0.10026 -0.87226,-0.10026 -0.68678,0 -1.03268,0.21054 -0.34089,0.21055 -0.34089,0.63164 0,0.32084 0.24564,0.50632 0.24564,0.18047 0.98756,0.3459 l 0.31582,0.0702 q 0.98256,0.21055 1.39362,0.59655 0.41608,0.38099 0.41608,1.06777 0,0.78203 -0.62161,1.23822 -0.6166,0.45618 -1.69941,0.45618 -0.45118,0 -0.94245,-0.0902 -0.48626,-0.0852 -1.02767,-0.26068 v -0.95247 q 0.51133,0.26569 1.00762,0.40104 0.49629,0.13034 0.98255,0.13034 0.65169,0 1.0026,-0.22058 0.35091,-0.22558 0.35091,-0.63164 0,-0.37597 -0.25566,-0.57649 -0.25065,-0.20053 -1.10788,-0.38601 l -0.32083,-0.0752 q -0.85723,-0.18047 -1.23822,-0.55143 -0.38099,-0.37598 -0.38099,-1.02767 0,-0.79206 0.56146,-1.22318 0.56146,-0.43112 1.59414,-0.43112 0.51133,0 0.9625,0.0752 0.45117,0.0752 0.83216,0.22558 z" />
    <path
       inkscape:connector-curvature="0"
       id="path1695"
       style="font-style:normal;font-weight:normal;font-size:medium;line-height:1.25;font-family:sans-serif;letter-spacing:0px;word-spacing:0px;fill:#000000;fill-opacity:1;stroke:none;stroke-width:0.25666648"
       d="m 154.53228,175.58809 v 1.06778 q -0.51133,-0.47624 -1.09284,-0.71185 -0.57649,-0.23561 -1.22819,-0.23561 -1.28333,0 -1.9651,0.78704 -0.68177,0.78203 -0.68177,2.26588 0,1.47884 0.68177,2.26589 0.68177,0.78203 1.9651,0.78203 0.6517,0 1.22819,-0.23561 0.58151,-0.23561 1.09284,-0.71185 v 1.05775 q -0.53138,0.36093 -1.12793,0.5414 -0.59153,0.18047 -1.25325,0.18047 -1.69942,0 -2.67695,-1.03769 -0.97754,-1.04271 -0.97754,-2.84239 0,-1.80468 0.97754,-2.84238 0.97753,-1.0427 2.67695,-1.0427 0.67174,0 1.26328,0.18046 0.59655,0.17546 1.1179,0.53138 z" />
    <path
       inkscape:connector-curvature="0"
       id="path1697"
       style="font-style:normal;font-weight:normal;font-size:medium;line-height:1.25;font-family:sans-serif;letter-spacing:0px;word-spacing:0px;fill:#000000;fill-opacity:1;stroke:none;stroke-width:0.25666648"
       d="m 158.61789,179.6737 q -1.11791,0 -1.54903,0.25567 -0.43111,0.25566 -0.43111,0.87226 0,0.49128 0.32083,0.78203 0.32584,0.28575 0.88229,0.28575 0.76699,0 1.22819,-0.54141 0.46621,-0.54642 0.46621,-1.44876 v -0.20554 z m 1.83977,-0.38099 v 3.20332 h -0.92239 v -0.85221 q -0.31582,0.51133 -0.78704,0.75697 -0.47123,0.24062 -1.153,0.24062 -0.86224,0 -1.37357,-0.48125 -0.50631,-0.48626 -0.50631,-1.29837 0,-0.94746 0.63164,-1.42871 0.63665,-0.48125 1.89492,-0.48125 h 1.29336 v -0.0902 q 0,-0.63666 -0.42109,-0.98256 -0.41608,-0.35091 -1.17305,-0.35091 -0.48125,0 -0.93743,0.1153 -0.45619,0.1153 -0.87728,0.3459 v -0.85221 q 0.50631,-0.19551 0.98255,-0.29076 0.47624,-0.10026 0.92741,-0.10026 1.21816,0 1.81972,0.63164 0.60156,0.63164 0.60156,1.91497 z" />
    <path
       inkscape:connector-curvature="0"
       id="path1699"
       style="font-style:normal;font-weight:normal;font-size:medium;line-height:1.25;font-family:sans-serif;letter-spacing:0px;word-spacing:0px;fill:#000000;fill-opacity:1;stroke:none;stroke-width:0.25666648"
       d="m 165.61606,177.74369 q -0.1554,-0.0902 -0.34088,-0.13034 -0.18047,-0.0451 -0.40104,-0.0451 -0.78204,0 -1.20313,0.51132 -0.41608,0.50632 -0.41608,1.45879 v 2.95768 h -0.92741 v -5.61458 h 0.92741 v 0.87227 q 0.29076,-0.51133 0.75697,-0.75697 0.46621,-0.25065 1.13294,-0.25065 0.0953,0 0.21054,0.015 0.1153,0.01 0.25567,0.0351 z" />
    <path
       inkscape:connector-curvature="0"
       id="path1701"
       style="font-style:normal;font-weight:normal;font-size:medium;line-height:1.25;font-family:sans-serif;letter-spacing:0px;word-spacing:0px;fill:#000000;fill-opacity:1;stroke:none;stroke-width:0.25666648"
       d="m 170.10772,177.73367 v -3.03789 h 0.9224 v 7.80025 h -0.9224 v -0.84218 q -0.29075,0.5013 -0.73691,0.74694 -0.44115,0.24062 -1.06276,0.24062 -1.01764,0 -1.65931,-0.81211 -0.63665,-0.81211 -0.63665,-2.13554 0,-1.32344 0.63665,-2.13555 0.64167,-0.81211 1.65931,-0.81211 0.62161,0 1.06276,0.24564 0.44616,0.24062 0.73691,0.74193 z m -3.14316,1.96009 q 0,1.01764 0.41608,1.59915 0.42109,0.5765 1.15299,0.5765 0.7319,0 1.153,-0.5765 0.42109,-0.58151 0.42109,-1.59915 0,-1.01765 -0.42109,-1.59414 -0.4211,-0.58151 -1.153,-0.58151 -0.7319,0 -1.15299,0.58151 -0.41608,0.57649 -0.41608,1.59414 z" />
    <path
       inkscape:connector-curvature="0"
       id="path1703"
       style="font-style:normal;font-weight:normal;font-size:medium;line-height:1.25;font-family:sans-serif;letter-spacing:0px;word-spacing:0px;fill:#000000;fill-opacity:1;stroke:none;stroke-width:0.25666648"
       d="m 176.50934,177.04688 v 0.87227 q -0.39101,-0.20052 -0.8121,-0.30078 -0.4211,-0.10026 -0.87227,-0.10026 -0.68678,0 -1.03268,0.21054 -0.34089,0.21055 -0.34089,0.63164 0,0.32084 0.24564,0.50632 0.24564,0.18047 0.98757,0.3459 l 0.31582,0.0702 q 0.98255,0.21055 1.39361,0.59655 0.41609,0.38099 0.41609,1.06777 0,0.78203 -0.62162,1.23822 -0.6166,0.45618 -1.69941,0.45618 -0.45117,0 -0.94245,-0.0902 -0.48626,-0.0852 -1.02767,-0.26068 v -0.95247 q 0.51133,0.26569 1.00762,0.40104 0.49629,0.13034 0.98255,0.13034 0.65169,0 1.0026,-0.22058 0.35091,-0.22558 0.35091,-0.63164 0,-0.37597 -0.25566,-0.57649 -0.25065,-0.20053 -1.10788,-0.38601 l -0.32083,-0.0752 q -0.85722,-0.18047 -1.23821,-0.55143 -0.38099,-0.37598 -0.38099,-1.02767 0,-0.79206 0.56145,-1.22318 0.56146,-0.43112 1.59414,-0.43112 0.51133,0 0.9625,0.0752 0.45117,0.0752 0.83216,0.22558 z" />
    <path
       inkscape:connector-curvature="0"
       id="path1705"
       style="font-style:normal;font-weight:normal;font-size:medium;line-height:1.25;font-family:sans-serif;letter-spacing:0px;word-spacing:0px;fill:#000000;fill-opacity:1;stroke:none;stroke-width:0.25666648"
       d="m 178.41429,181.22273 h 1.05775 v 1.2733 h -1.05775 z" />
    <path
       inkscape:connector-curvature="0"
       id="path1707"
       style="font-style:normal;font-weight:normal;font-size:medium;line-height:1.25;font-family:sans-serif;letter-spacing:0px;word-spacing:0px;fill:#000000;fill-opacity:1;stroke:none;stroke-width:0.25666648"
       d="m 185.59293,177.09701 v 0.86224 q -0.39101,-0.21556 -0.78704,-0.32083 -0.39102,-0.11029 -0.79206,-0.11029 -0.89733,0 -1.39362,0.57149 -0.49629,0.56647 -0.49629,1.59414 0,1.02766 0.49629,1.59915 0.49629,0.56647 1.39362,0.56647 0.40104,0 0.79206,-0.10527 0.39603,-0.11029 0.78704,-0.32585 v 0.85221 q -0.386,0.18047 -0.80208,0.27071 -0.41107,0.0902 -0.87728,0.0902 -1.26829,0 -2.01523,-0.79707 -0.74694,-0.79707 -0.74694,-2.15058 0,-1.37357 0.75195,-2.16061 0.75697,-0.78705 2.07038,-0.78705 0.4261,0 0.83216,0.0902 0.40605,0.0852 0.78704,0.26067 z" />
    <path
       inkscape:connector-curvature="0"
       id="path1709"
       style="font-style:normal;font-weight:normal;font-size:medium;line-height:1.25;font-family:sans-serif;letter-spacing:0px;word-spacing:0px;fill:#000000;fill-opacity:1;stroke:none;stroke-width:0.25666648"
       d="m 189.38278,177.52813 q -0.74193,0 -1.17305,0.58151 -0.43112,0.5765 -0.43112,1.58412 0,1.00761 0.42611,1.58912 0.43112,0.5765 1.17806,0.5765 0.73691,0 1.16803,-0.58151 0.43112,-0.58151 0.43112,-1.58411 0,-0.99759 -0.43112,-1.5791 -0.43112,-0.58653 -1.16803,-0.58653 z m 0,-0.78203 q 1.20312,0 1.8899,0.78203 0.68679,0.78203 0.68679,2.16563 0,1.37858 -0.68679,2.16562 -0.68678,0.78203 -1.8899,0.78203 -1.20814,0 -1.89492,-0.78203 -0.68177,-0.78704 -0.68177,-2.16562 0,-1.3836 0.68177,-2.16563 0.68678,-0.78203 1.89492,-0.78203 z" />
    <path
       inkscape:connector-curvature="0"
       id="path1711"
       style="font-style:normal;font-weight:normal;font-size:medium;line-height:1.25;font-family:sans-serif;letter-spacing:0px;word-spacing:0px;fill:#000000;fill-opacity:1;stroke:none;stroke-width:0.25666648"
       d="m 197.85478,177.95925 q 0.34589,-0.62161 0.82714,-0.91738 0.48125,-0.29577 1.13295,-0.29577 0.87727,0 1.35351,0.6166 0.47624,0.61159 0.47624,1.74453 v 3.3888 h -0.92741 v -3.35872 q 0,-0.80709 -0.28574,-1.19811 -0.28574,-0.39102 -0.87227,-0.39102 -0.71686,0 -1.13294,0.47624 -0.41608,0.47624 -0.41608,1.29837 v 3.17324 h -0.92741 v -3.35872 q 0,-0.81211 -0.28574,-1.19811 -0.28574,-0.39102 -0.88229,-0.39102 -0.70684,0 -1.12292,0.48125 -0.41608,0.47624 -0.41608,1.29336 v 3.17324 h -0.92741 v -5.61458 h 0.92741 v 0.87227 q 0.31582,-0.51634 0.75697,-0.76198 0.44114,-0.24564 1.04772,-0.24564 0.61159,0 1.03769,0.31081 0.43112,0.31081 0.63666,0.90234 z" />
  </g>
</svg>
